<?xml version="1.0" encoding="UTF-8"?>
<svg width="52px" height="52px" viewBox="0 0 52 52" version="1.1" xmlns="http://www.w3.org/2000/svg" xmlns:xlink="http://www.w3.org/1999/xlink">
    <!-- Generator: Sketch 52.5 (67469) - http://www.bohemiancoding.com/sketch -->
    <title>mdpi/Group 27</title>
    <desc>Created with Sketch.</desc>
    <defs>
        <linearGradient x1="71.0844734%" y1="95.5795314%" x2="26.8404269%" y2="4.29911121%" id="linearGradient-1">
            <stop stop-color="#F5296D" offset="0%"></stop>
            <stop stop-color="#F95353" offset="45.7392522%"></stop>
            <stop stop-color="#FC6C43" offset="100%"></stop>
        </linearGradient>
        <linearGradient x1="26.8404269%" y1="4.29911121%" x2="50%" y2="50%" id="linearGradient-2">
            <stop stop-color="#7844FC" offset="0%"></stop>
            <stop stop-color="#9B6AF1" offset="100%"></stop>
        </linearGradient>
        <linearGradient x1="34.15625%" y1="0%" x2="50%" y2="115.445313%" id="linearGradient-3">
            <stop stop-color="#875AFC" offset="0%"></stop>
            <stop stop-color="#C395E7" offset="100%"></stop>
        </linearGradient>
    </defs>
    <g id="Design-Challenge_Haimeng-Gan" stroke="none" stroke-width="1" fill="none" fill-rule="evenodd">
        <g id="Desktop-HD-Copy" transform="translate(-268.000000, -2147.000000)">
            <g id="Group-27" transform="translate(269.000000, 2148.000000)">
                <g id="round-arrow_downward-24px-copy" transform="translate(13.000000, 13.000000)">
                    <polygon id="Path" points="0 0 24 0 24 24 0 24"></polygon>
                    <path d="M11,5 L11,16.17 L6.12,11.29 C5.73,10.9 5.09,10.9 4.7,11.29 C4.31,11.68 4.31,12.31 4.7,12.7 L11.29,19.29 C11.68,19.68 12.31,19.68 12.7,19.29 L19.29,12.7 C19.68,12.31 19.68,11.68 19.29,11.29 C18.9,10.9 18.27,10.9 17.88,11.29 L13,16.17 L13,5 C13,4.45 12.55,4 12,4 C11.45,4 11,4.45 11,5 Z" id="Path" fill="url(#linearGradient-2)"></path>
                </g>
                <circle id="Oval-Copy-10" stroke="url(#linearGradient-3)" stroke-width="2" cx="25" cy="25" r="25"></circle>
            </g>
        </g>
    </g>
</svg>