<?xml version="1.0" encoding="UTF-8"?>
<svg width="158px" height="18px" viewBox="0 0 158 18" version="1.1" xmlns="http://www.w3.org/2000/svg" xmlns:xlink="http://www.w3.org/1999/xlink">
    <!-- Generator: Sketch 52.5 (67469) - http://www.bohemiancoding.com/sketch -->
    <title>hdpi/We can help Copy</title>
    <desc>Created with Sketch.</desc>
    <defs>
        <radialGradient cx="115.029173%" cy="55.7185477%" fx="115.029173%" fy="55.7185477%" r="1193.27862%" gradientTransform="translate(1.150292,0.557185),scale(0.113924,1.000000),rotate(177.674657),scale(1.000000,0.233646),translate(-1.150292,-0.557185)" id="radialGradient-1">
            <stop stop-color="#FF7F6A" offset="0%"></stop>
            <stop stop-color="#C698E6" offset="11.8113259%"></stop>
            <stop stop-color="#6A35FF" offset="100%"></stop>
        </radialGradient>
    </defs>
    <g id="Design-Challenge_Haimeng-Gan" stroke="none" stroke-width="1" fill="none" fill-rule="evenodd">
        <g id="Desktop-HD-Copy" transform="translate(-215.000000, -2081.000000)" fill="url(#radialGradient-1)">
            <path d="M215,2081.19486 L217.715644,2081.19486 C217.996021,2081.19486 218.230333,2081.26184 218.418587,2081.39581 C218.60684,2081.52977 218.733009,2081.71042 218.797095,2081.93775 L221.753061,2092.47226 C221.825158,2092.73207 221.891246,2093.01421 221.951327,2093.31867 C222.011408,2093.62314 222.069485,2093.94587 222.125561,2094.28687 C222.189647,2093.94587 222.259741,2093.62314 222.335843,2093.31867 C222.411946,2093.01421 222.494055,2092.73207 222.582174,2092.47226 L225.994752,2081.93775 C226.058839,2081.75101 226.185007,2081.58051 226.37326,2081.42625 C226.561514,2081.27199 226.791821,2081.19486 227.064187,2081.19486 L228.013461,2081.19486 C228.293839,2081.19486 228.526148,2081.26184 228.710396,2081.39581 C228.894644,2081.52977 229.022815,2081.71042 229.094912,2081.93775 L232.483459,2092.47226 C232.659696,2092.99188 232.811899,2093.56833 232.940071,2094.20162 C232.996147,2093.88498 233.054224,2093.58052 233.114305,2093.28823 C233.174386,2092.99594 233.236469,2092.72395 233.300555,2092.47226 L236.256521,2081.93775 C236.312597,2081.73478 236.436762,2081.56022 236.629021,2081.41407 C236.82128,2081.26793 237.05359,2081.19486 237.325956,2081.19486 L239.861358,2081.19486 L234.466119,2098.80514 L231.546201,2098.80514 L227.749106,2086.77267 C227.701042,2086.6184 227.650975,2086.45196 227.598905,2086.27334 C227.546835,2086.09472 227.496768,2085.90393 227.448703,2085.70095 C227.400639,2085.90393 227.350572,2086.09472 227.298502,2086.27334 C227.246432,2086.45196 227.196365,2086.6184 227.1483,2086.77267 L223.315157,2098.80514 L220.395239,2098.80514 L215,2081.19486 Z M252.71861,2081.19486 L252.71861,2083.80108 L245.016275,2083.80108 L245.016275,2088.68471 L251.084417,2088.68471 L251.084417,2091.20568 L245.016275,2091.20568 L245.016275,2096.18674 L252.71861,2096.18674 L252.71861,2098.80514 L241.759906,2098.80514 L241.759906,2081.19486 L252.71861,2081.19486 Z M272.100616,2094.65223 C272.276853,2094.65223 272.429056,2094.72124 272.557229,2094.85927 L273.830938,2096.25981 C273.125988,2097.14479 272.258833,2097.82273 271.229447,2098.29364 C270.200061,2098.76455 268.964415,2099 267.522473,2099 C266.232736,2099 265.073192,2098.77673 264.043806,2098.33018 C263.014419,2097.88362 262.135248,2097.26252 261.406267,2096.46685 C260.677285,2095.67117 260.118541,2094.72125 259.730017,2093.61705 C259.341494,2092.51285 259.147236,2091.30718 259.147236,2090 C259.147236,2088.67658 259.363524,2087.46482 259.796106,2086.36468 C260.228689,2085.26454 260.8375,2084.31665 261.622557,2083.52097 C262.407614,2082.7253 263.346865,2082.10623 264.440338,2081.66373 C265.53381,2081.22124 266.741419,2081 268.063199,2081 C269.352936,2081 270.480437,2081.20906 271.445737,2081.6272 C272.411037,2082.04533 273.238139,2082.59946 273.927067,2083.28958 L272.845616,2084.81191 C272.781529,2084.90934 272.69942,2084.99459 272.599285,2085.06766 C272.49915,2085.14073 272.360966,2085.17727 272.184729,2085.17727 C272.000481,2085.17727 271.81223,2085.1042 271.619971,2084.95805 C271.427712,2084.81191 271.183387,2084.65359 270.886988,2084.48309 C270.590588,2084.31258 270.21609,2084.15426 269.76348,2084.00812 C269.310871,2083.86197 268.736105,2083.7889 268.039166,2083.7889 C267.222066,2083.7889 266.471066,2083.93302 265.786143,2084.22124 C265.101221,2084.50947 264.512437,2084.92151 264.019773,2085.45737 C263.52711,2085.99324 263.142598,2086.64479 262.866226,2087.41204 C262.589853,2088.1793 262.451669,2089.04194 262.451669,2090 C262.451669,2090.99053 262.589853,2091.87144 262.866226,2092.64276 C263.142598,2093.41408 263.517097,2094.0636 263.989733,2094.59134 C264.46237,2095.11908 265.019111,2095.523 265.659974,2095.80311 C266.300837,2096.08322 266.989755,2096.22327 267.726747,2096.22327 C268.167341,2096.22327 268.565871,2096.19892 268.922352,2096.1502 C269.278832,2096.10149 269.607269,2096.02436 269.907674,2095.91881 C270.208078,2095.81326 270.492457,2095.67727 270.760818,2095.51083 C271.02918,2095.34438 271.295534,2095.13938 271.55989,2094.89581 C271.639998,2094.82273 271.72411,2094.76387 271.812229,2094.71922 C271.900348,2094.67456 271.996476,2094.65223 272.100616,2094.65223 Z M291.542703,2098.80514 L289.043349,2098.80514 C288.762972,2098.80514 288.532665,2098.7341 288.352422,2098.59202 C288.172179,2098.44993 288.042006,2098.27334 287.961898,2098.06225 L286.664157,2094.46955 L279.466499,2094.46955 L278.168758,2098.06225 C278.104672,2098.24899 277.978504,2098.41949 277.79025,2098.57375 C277.601997,2098.72801 277.37169,2098.80514 277.099323,2098.80514 L274.587953,2098.80514 L281.413111,2081.19486 L284.717545,2081.19486 L291.542703,2098.80514 Z M280.295612,2092.15562 L285.835044,2092.15562 L283.720207,2086.2977 C283.624077,2086.03789 283.517936,2085.7314 283.40178,2085.37821 C283.285623,2085.02503 283.171471,2084.64141 283.05932,2084.22733 C282.947169,2084.64141 282.837022,2085.02706 282.728877,2085.3843 C282.620731,2085.74154 282.51459,2086.05413 282.410449,2086.32206 L280.295612,2092.15562 Z M295.027379,2081.19486 C295.171573,2081.19486 295.291733,2081.20095 295.387862,2081.21313 C295.483992,2081.2253 295.570106,2081.24966 295.646209,2081.2862 C295.722311,2081.32273 295.79641,2081.37551 295.868507,2081.44452 C295.940604,2081.51353 296.020711,2081.60487 296.10883,2081.71854 L305.229067,2093.49526 C305.197024,2093.21109 305.174994,2092.93302 305.162978,2092.66103 C305.150962,2092.38904 305.144954,2092.13532 305.144954,2091.89986 L305.144954,2081.19486 L307.992775,2081.19486 L307.992775,2098.80514 L306.322534,2098.80514 C306.066189,2098.80514 305.853906,2098.76455 305.68568,2098.68336 C305.517453,2098.60216 305.353234,2098.45602 305.193018,2098.24493 L296.10883,2086.51691 C296.132862,2086.77673 296.150886,2087.0345 296.162902,2087.29026 C296.174918,2087.54601 296.180926,2087.77943 296.180926,2087.99053 L296.180926,2098.80514 L293.333105,2098.80514 L293.333105,2081.19486 L295.027379,2081.19486 Z M330.799376,2098.80514 L327.543007,2098.80514 L327.543007,2091.10825 L319.396076,2091.10825 L319.396076,2098.80514 L316.139706,2098.80514 L316.139706,2081.19486 L319.396076,2081.19486 L319.396076,2088.76996 L327.543007,2088.76996 L327.543007,2081.19486 L330.799376,2081.19486 L330.799376,2098.80514 Z M345.266788,2081.19486 L345.266788,2083.80108 L337.564454,2083.80108 L337.564454,2088.68471 L343.632596,2088.68471 L343.632596,2091.20568 L337.564454,2091.20568 L337.564454,2096.18674 L345.266788,2096.18674 L345.266788,2098.80514 L334.308084,2098.80514 L334.308084,2081.19486 L345.266788,2081.19486 Z M351.298882,2096.10149 L358.256217,2096.10149 L358.256217,2098.80514 L348.066545,2098.80514 L348.066545,2081.19486 L351.298882,2081.19486 L351.298882,2096.10149 Z M363.831698,2092.60622 L363.831698,2098.80514 L360.599361,2098.80514 L360.599361,2081.19486 L366.258955,2081.19486 C367.420519,2081.19486 368.425858,2081.33288 369.275002,2081.60893 C370.124145,2081.88498 370.825079,2082.27063 371.377823,2082.7659 C371.930568,2083.26117 372.339112,2083.85385 372.603468,2084.54398 C372.867824,2085.2341 373,2085.98917 373,2086.8092 C373,2087.66171 372.859813,2088.44316 372.579436,2089.15359 C372.299058,2089.86401 371.878498,2090.47496 371.317743,2090.98647 C370.756988,2091.49797 370.056054,2091.8958 369.214921,2092.17997 C368.373788,2092.46414 367.388476,2092.60622 366.258955,2092.60622 L363.831698,2092.60622 Z M363.831698,2090.04871 L366.258955,2090.04871 C366.851753,2090.04871 367.368442,2089.97361 367.809035,2089.82341 C368.249628,2089.67321 368.614114,2089.45805 368.902502,2089.17794 C369.19089,2088.89783 369.407179,2088.55684 369.551373,2088.15494 C369.695567,2087.75304 369.767663,2087.30447 369.767663,2086.8092 C369.767663,2086.33829 369.695567,2085.91205 369.551373,2085.53045 C369.407179,2085.14885 369.19089,2084.82409 368.902502,2084.55616 C368.614114,2084.28823 368.249628,2084.08322 367.809035,2083.94114 C367.368442,2083.79905 366.851753,2083.72801 366.258955,2083.72801 L363.831698,2083.72801 L363.831698,2090.04871 Z" id="We-can-help-Copy"></path>
        </g>
    </g>
</svg>